<svg width="45" height="37" xmlns="http://www.w3.org/2000/svg">
    <g id="Layer_1">
        <title>Layer 1</title>
        <path d="m22.48079,19.65304c-0.06298,-0.12596 -0.15704,-0.18129 -0.18894,-0.37788c-0.01009,-0.06217 -0.05974,-0.20775 -0.12596,-0.3149c-0.07404,-0.11979 -0.13686,-0.11669 -0.18894,-0.18894c-0.08234,-0.11424 -0.06777,-0.16484 -0.12596,-0.18894c-0.08229,-0.03408 -0.08143,-0.14441 -0.12596,-0.18894c-0.04453,-0.04453 -0.06777,-0.03888 -0.12596,-0.06298c-0.08229,-0.03408 -0.00616,-0.17789 -0.12596,-0.25192c-0.05357,-0.03311 -0.26364,-0.1066 -0.37788,-0.18894c-0.14451,-0.10416 -0.22635,-0.15827 -0.37788,-0.25192c-0.16942,-0.1047 -0.27629,-0.18375 -0.44086,-0.25192c-0.11637,-0.0482 -0.3149,-0.06298 -0.37788,-0.06298c-0.12596,0 -0.20066,0.01936 -0.3149,-0.06298c-0.07226,-0.05208 -0.18894,-0.06298 -0.25192,-0.06298c-0.06298,0 -0.11486,-0.03062 -0.25192,-0.06298c-0.0613,-0.01447 -0.12596,0 -0.18894,0c-0.06298,0 -0.12596,0 -0.18894,0c-0.06298,0 -0.12596,0 -0.18894,0c-0.12596,0 -0.10665,0.09188 -0.18894,0.12596c-0.05819,0.0241 -0.13075,0.03888 -0.18894,0.06298c-0.08229,0.03408 -0.10186,0.06777 -0.12596,0.12596c-0.03408,0.08229 -0.10665,0.09188 -0.18894,0.12596c-0.05819,0.0241 -0.10665,0.09188 -0.18894,0.12596c-0.11637,0.0482 -0.13075,0.03888 -0.18894,0.06298c-0.08229,0.03408 -0.13076,0.10186 -0.18894,0.12596c-0.08229,0.03408 -0.09285,0.07239 -0.12596,0.12596c-0.07404,0.11979 -0.13075,0.03888 -0.18894,0.06298c-0.08229,0.03408 -0.08142,0.08143 -0.12596,0.12596c-0.04453,0.04453 -0.12596,0.06298 -0.18894,0.12596c-0.06298,0.06298 -0.13075,0.10186 -0.18894,0.12596c-0.08229,0.03408 -0.10186,0.13075 -0.12596,0.18894c-0.03408,0.08229 -0.06298,0.18894 -0.12596,0.25192c-0.06298,0.06298 -0.08143,0.20739 -0.12596,0.25192c-0.04453,0.04453 -0.09188,0.04367 -0.12596,0.12596c-0.0241,0.05819 -0.04367,0.21784 -0.12596,0.25192c-0.05819,0.0241 -0.09188,0.10665 -0.12596,0.18894c-0.0241,0.05819 -0.09361,0.11486 -0.12596,0.25192c-0.01447,0.0613 -0.09188,0.10665 -0.12596,0.18894c-0.0482,0.11637 -0.0289,0.16964 -0.06298,0.25192c-0.0241,0.05819 -0.07388,0.11668 -0.12596,0.18894c-0.08234,0.11425 0.02609,0.22583 -0.06298,0.3149c-0.04453,0.04453 -0.06298,0.06298 -0.06298,0.12596c0,0.06298 -0.0289,0.10665 -0.06298,0.18894c-0.0241,0.05819 0,0.18894 0,0.25192c0,0.06298 -0.06298,0.18894 -0.06298,0.25192c0,0.06298 0,0.12596 0,0.18894c0,0.06298 0,0.18894 0,0.3149c0,0.06298 0,0.12596 0,0.18894c0,0.06298 0,0.12596 0,0.18894c0,0.06298 0,0.12596 0,0.18894c0,0.18894 0,0.25192 0,0.3149c0,0.06298 0.04851,0.12765 0.06298,0.18894c0.03236,0.13706 0.09188,0.16963 0.12596,0.25192c0.0241,0.05819 0.0936,0.11486 0.12596,0.25192c0.02894,0.12259 0.09188,0.23261 0.12596,0.3149c0.0241,0.05819 -0.01447,0.12765 0,0.18894c0.03236,0.13706 0.12596,0.12596 0.12596,0.18894c0,0.12596 0.0936,0.17784 0.12596,0.3149c0.01447,0.0613 -0.0482,0.13555 0,0.25192c0.03409,0.08229 0.09361,0.17784 0.12596,0.3149c0.04341,0.18389 0.07388,0.30563 0.12596,0.37788c0.08234,0.11425 0.11273,0.19388 0.18894,0.37788c0.05389,0.13011 0.18894,0.25192 0.25192,0.37788c0,0 0.06298,0.18894 0.12596,0.25192c0.06298,0.06298 0.1066,0.20066 0.18894,0.3149c0.05208,0.07226 0.17788,0.13213 0.25192,0.25192c0.06622,0.10715 0.1066,0.20065 0.18894,0.3149c0.10416,0.14451 0.21074,0.23337 0.3149,0.37788c0.08234,0.11424 0.12596,0.18894 0.18894,0.25192c0.12596,0.12596 0.15234,0.15234 0.25192,0.25192c0.09958,0.09958 0.0537,0.26282 0.12596,0.3149c0.11425,0.08234 0.17788,0.19511 0.25192,0.3149c0.03311,0.05357 0.09361,0.17784 0.12596,0.3149c0.01447,0.06129 0.15486,0.16963 0.18894,0.25192c0.0241,0.05819 -0.01936,0.13767 0.06298,0.25192c0.05208,0.07226 0.04362,0.20066 0.12596,0.3149c0.05208,0.07226 0.07388,0.17967 0.12596,0.25192c0.08234,0.11425 0.04974,0.19388 0.12596,0.37788c0.05389,0.13011 0.09702,0.25529 0.12596,0.37788c0.03236,0.13706 0.11149,0.19063 0.12596,0.25192c0.03235,0.13706 0.15658,0.17784 0.18894,0.3149c0.01447,0.06129 0.06298,0.12596 0.06298,0.18894c0,0.06298 0.09188,0.10665 0.12596,0.18894c0.0241,0.05819 -0.05682,0.17788 0.06298,0.25192c0.05357,0.03311 0.15486,0.10666 0.18894,0.18894c0.0241,0.05818 -0.0241,0.13075 0,0.18894c0.03408,0.08229 0.04851,0.12765 0.06298,0.18894c0.03235,0.13706 0.11149,0.19063 0.12596,0.25192c0.03236,0.13706 0.12596,0.18894 0.12596,0.3149c0,0.06298 0.08143,0.14441 0.12596,0.18894c0.04453,0.04453 0.0289,0.10666 0.06298,0.18894c0.0241,0.05819 0.07496,0.1185 0.18894,0.3149c0.07069,0.1218 0.1066,0.26364 0.18894,0.37788c0.10416,0.14451 0.18894,0.37788 0.3149,0.50384c0.06298,0.06298 0.14441,0.20739 0.18894,0.25192c0.04453,0.04453 0.0289,0.10665 0.06298,0.18894c0.0241,0.05819 0.03888,0.06778 0.06298,0.12596c0.03408,0.08229 0.06298,0.12596 0.12596,0.18894c0.06298,0.06298 0.08143,0.14441 0.12596,0.18894c0.04453,0.04453 0.09188,0.04367 0.12596,0.12596c0.0241,0.05819 0.05974,0.08179 0.12596,0.18894c0.07404,0.1198 0.1066,0.13768 0.18894,0.25192c0.05208,0.07226 0.09188,0.10666 0.12596,0.18894c0.0241,0.05818 0.09188,0.10665 0.12596,0.18894c0.0241,0.05819 0.09188,0.10666 0.12596,0.18894c0.0241,0.05819 -0.02609,0.16285 0.06298,0.25192c0.04453,0.04453 0.12596,0 0.12596,-0.06298c0,-0.06298 0,-0.12596 0,-0.18894c0,-0.06298 -0.0482,-0.13555 0,-0.25192c0.03408,-0.08229 0.12596,-0.12596 0.12596,-0.25192c0,-0.06298 0,-0.12596 0,-0.18894c0,-0.06298 0,-0.12596 0.06298,-0.18894c0.06298,-0.06298 0.09188,-0.10665 0.12596,-0.18894c0.0241,-0.05819 0.04367,-0.15486 0.12596,-0.18894c0.05819,-0.0241 0.20739,-0.08143 0.25192,-0.12596c0.04453,-0.04453 0.13767,0.01936 0.25192,-0.06298c0.07226,-0.05208 0.30384,-0.00616 0.37788,-0.12596c0.03311,-0.05357 0.11669,-0.07388 0.18894,-0.12596c0.11425,-0.08234 0.19063,-0.04851 0.25192,-0.06298c0.13706,-0.03236 0.19231,-0.09702 0.3149,-0.12596c0.13706,-0.03236 0.13555,-0.07776 0.25192,-0.12596c0.08229,-0.03408 0.13537,-0.09285 0.18894,-0.12596c0.1198,-0.07404 0.15486,-0.16964 0.18894,-0.25192c0.0241,-0.05818 0.10665,-0.15485 0.18894,-0.18894c0.05819,-0.0241 0.13768,-0.04362 0.25192,-0.12596c0.07225,-0.05208 0.12866,-0.10771 0.18894,-0.12596c0.21734,-0.0658 0.32662,-0.1066 0.44086,-0.18894c0.14451,-0.10416 0.3149,-0.18894 0.37788,-0.25192c0.06298,-0.06298 0.25192,-0.18894 0.3149,-0.25192c0.12596,-0.12596 0.27629,-0.24673 0.44086,-0.3149c0.11637,-0.0482 0.24086,-0.06915 0.3149,-0.18894c0.03311,-0.05357 0.12596,-0.12596 0.18894,-0.18894c0.06298,-0.06298 0.16958,-0.20066 0.25192,-0.3149c0.05208,-0.07225 0.15234,-0.15234 0.25192,-0.25192c0.09958,-0.09958 0.12596,-0.25192 0.18894,-0.3149c0.06298,-0.06298 0.15659,-0.17784 0.18894,-0.3149c0.04341,-0.18389 0.0936,-0.24082 0.12596,-0.37788c0.02894,-0.12259 0.09361,-0.17784 0.12596,-0.3149c0.04341,-0.18389 0.04362,-0.32662 0.12596,-0.44086c0.05208,-0.07226 0.06298,-0.25192 0.12596,-0.3149c0.06298,-0.06298 0.04851,-0.19063 0.06298,-0.25192c0.03236,-0.13706 0.12596,-0.18894 0.18894,-0.3149c0.06298,-0.12596 0.12596,-0.18894 0.12596,-0.25192c0,-0.18894 0.09361,-0.3038 0.12596,-0.44086c0.02894,-0.12259 0.06298,-0.25192 0.12596,-0.44086c0.06298,-0.18894 0.09667,-0.27149 0.18894,-0.37788c0.13049,-0.15046 0.06298,-0.3149 0.12596,-0.44086c0.06298,-0.12596 0.06298,-0.25192 0.12596,-0.37788c0.06298,-0.12596 0.09702,-0.25529 0.12596,-0.37788c0.03235,-0.13706 0.13686,-0.17966 0.18894,-0.25192c0.08234,-0.11425 0.04498,-0.26525 0.18894,-0.44086c0.05647,-0.06888 0.21956,-0.11486 0.25192,-0.25192c0.02894,-0.12259 0.06298,-0.18894 0.12596,-0.3149c0.06298,-0.12596 0.18124,-0.25608 0.25192,-0.37788c0.11398,-0.1964 0.14776,-0.29635 0.25192,-0.44086c0.08234,-0.11424 0.14776,-0.29635 0.25192,-0.44086c0.08234,-0.11425 0.14553,-0.25698 0.18894,-0.44086c0.03236,-0.13706 0.12596,-0.18894 0.12596,-0.25192c0,-0.06298 0.05529,-0.25239 0.06298,-0.3149c0.03173,-0.25773 0.09884,-0.38626 0.18894,-0.6298c0.04886,-0.13208 0.12596,-0.3149 0.12596,-0.44086c0,-0.18894 0.03062,-0.36678 0.06298,-0.50384c0.01447,-0.0613 0.06298,-0.3149 0.06298,-0.37788c0,-0.12596 0.06298,-0.25192 0.06298,-0.3149c0,-0.12596 0,-0.18894 0,-0.3149c0,-0.12596 0,-0.25192 0,-0.44086c0,-0.12596 0,-0.25192 0,-0.37788c0,-0.06298 0,-0.18894 0,-0.25192c0,-0.18894 0.01447,-0.2536 0,-0.3149c-0.03236,-0.13706 -0.01478,-0.26151 -0.06298,-0.37788c-0.03408,-0.08229 -0.15704,-0.11831 -0.18894,-0.3149c-0.01009,-0.06217 -0.03888,-0.13076 -0.06298,-0.18894c-0.03408,-0.08229 -0.06298,-0.18894 -0.12596,-0.3149c-0.06298,-0.12596 -0.06298,-0.25192 -0.12596,-0.37788c-0.06298,-0.12596 -0.12596,-0.25192 -0.12596,-0.25192c0,-0.06298 0,-0.06298 0,-0.06298c0,-0.06298 0,-0.12596 0,-0.18894c0,-0.06298 0,-0.25192 0,-0.37788c0,-0.12596 0.00621,-0.18925 0,-0.25192c-0.03164,-0.31957 -0.06298,-0.44086 -0.12596,-0.6298c-0.06298,-0.18894 -0.12596,-0.37788 -0.18894,-0.50384c-0.06298,-0.12596 -0.08936,-0.2783 -0.18894,-0.37788c-0.09958,-0.09958 -0.1931,-0.24422 -0.3149,-0.3149c-0.1964,-0.11398 -0.29635,-0.14776 -0.44086,-0.25192c-0.11424,-0.08234 -0.3149,-0.06298 -0.44086,-0.06298c-0.18894,0 -0.37788,0 -0.56682,0c-0.18894,0 -0.37788,0 -0.56682,0c-0.25192,0 -0.44086,0 -0.69278,0c-0.3149,0 -0.5071,-0.04035 -0.75576,0c-0.19659,0.0319 -0.43321,0.15704 -0.6298,0.18894c-0.1865,0.03027 -0.45419,0.10796 -0.6298,0.25192c-0.13776,0.11294 -0.41637,0.24739 -0.56682,0.37788c-0.10639,0.09227 -0.24265,0.19984 -0.3149,0.25192c-0.11424,0.08234 -0.3367,0.10741 -0.44086,0.25192c-0.08234,0.11425 -0.17039,0.27372 -0.3149,0.37788c-0.11424,0.08234 -0.29058,0.14467 -0.44086,0.3149c-0.0932,0.10558 -0.2639,0.24446 -0.37788,0.44086c-0.07068,0.1218 -0.20306,0.2458 -0.25192,0.37788c-0.09009,0.24355 -0.1066,0.45258 -0.18894,0.56682c-0.05208,0.07226 -0.07776,0.19853 -0.12596,0.3149c-0.03408,0.08229 -0.11149,0.12765 -0.12596,0.18894c-0.03236,0.13706 -0.12596,0.18894 -0.12596,0.25192c0,0.06298 -0.01845,0.14441 -0.06298,0.18894c-0.04453,0.04453 -0.10186,0.06777 -0.12596,0.12596c-0.03408,0.08229 -0.14441,0.08143 -0.18894,0.12596c-0.04453,0.04453 -0.08143,0.08143 -0.12596,0.12596c-0.04453,0.04453 -0.04367,0.09188 -0.12596,0.12596c-0.05819,0.0241 -0.13213,0.1149 -0.25192,0.18894c-0.05358,0.03311 -0.06298,0.06298 -0.12596,0.06298c-0.06298,0 -0.12596,0.06298 -0.12596,0.06298l-0.06298,0.06298" id="svg_1" stroke="#000" fill="#ffffff"/>
    </g>
</svg>